<?xml version="1.0" encoding="iso-8859-1"?>
<!-- Generator: Adobe Illustrator 19.0.0, SVG Export Plug-In . SVG Version: 6.00 Build 0)  -->
<svg version="1.1" id="Layer_1" xmlns="http://www.w3.org/2000/svg" xmlns:xlink="http://www.w3.org/1999/xlink" x="0px" y="0px"
	 viewBox="0 0 512 512" style="enable-background:new 0 0 512 512;" xml:space="preserve">
<g>
	<g>
		<path d="M389.224,407.51v-73.143H489.27l-50.155-83.592h50.155L381.388,70.972L273.505,250.775h50.155l-50.155,83.592h100.046
			v73.143H138.449v-73.143h100.046l-50.155-83.592h50.155L130.612,70.972L22.73,250.775h50.155L22.73,334.367h100.046v73.143H0
			v15.673h512V407.51H389.224z M50.413,318.694l15.673-26.122h27.954v-15.673h-18.55l25.078-41.796H50.413l21.943-36.571h32.134
			v-15.673H81.759l48.853-81.422l20.641,34.401h-15.416v15.673h24.82l50.155,83.592h-50.155l25.078,41.796h-18.551v15.673h27.954
			l15.674,26.122H50.413z M301.189,318.694l15.673-26.122h27.954v-15.673h-18.55l25.078-41.796h-50.155l21.943-36.571h32.134
			v-15.673h-22.731l48.853-81.422l20.641,34.401h-15.416v15.673h24.82l50.155,83.592h-50.155l25.078,41.796h-18.551v15.673h27.954
			l15.673,26.122H301.189z"/>
	</g>
</g>
<g>
	<g>
		<path d="M256,15.673c-36.009,0-65.306,29.297-65.306,65.306s29.297,65.306,65.306,65.306s65.306-29.297,65.306-65.306
			S292.009,15.673,256,15.673z M256,130.612c-27.367,0-49.633-22.266-49.633-49.633c0-27.367,22.266-49.633,49.633-49.633
			c27.367,0,49.633,22.266,49.633,49.633C305.633,108.346,283.367,130.612,256,130.612z"/>
	</g>
</g>
<g>
	<g>
		<rect x="31.347" y="459.755" width="26.122" height="15.673"/>
	</g>
</g>
<g>
	<g>
		<rect x="104.49" y="480.653" width="26.122" height="15.673"/>
	</g>
</g>
<g>
	<g>
		<rect x="188.082" y="449.306" width="26.122" height="15.674"/>
	</g>
</g>
<g>
	<g>
		<rect x="261.224" y="480.653" width="26.122" height="15.673"/>
	</g>
</g>
<g>
	<g>
		<rect x="334.367" y="449.306" width="26.122" height="15.674"/>
	</g>
</g>
<g>
	<g>
		<rect x="397.061" y="480.653" width="26.122" height="15.673"/>
	</g>
</g>
<g>
	<g>
		<rect x="459.755" y="449.306" width="26.122" height="15.674"/>
	</g>
</g>
<g>
</g>
<g>
</g>
<g>
</g>
<g>
</g>
<g>
</g>
<g>
</g>
<g>
</g>
<g>
</g>
<g>
</g>
<g>
</g>
<g>
</g>
<g>
</g>
<g>
</g>
<g>
</g>
<g>
</g>
</svg>
